<?xml version="1.0" encoding="utf-8"?>
<!-- Generator: Adobe Illustrator 16.0.0, SVG Export Plug-In . SVG Version: 6.00 Build 0)  -->
<!DOCTYPE svg PUBLIC "-//W3C//DTD SVG 1.1//EN" "http://www.w3.org/Graphics/SVG/1.1/DTD/svg11.dtd">
<svg version="1.1" id="Layer_1" xmlns="http://www.w3.org/2000/svg" xmlns:xlink="http://www.w3.org/1999/xlink" x="0px" y="0px"
	 width="2000px" height="1500px" viewBox="0 0 2000 1500" enable-background="new 0 0 2000 1500" xml:space="preserve">
<g>
	<rect x="830" y="354" fill="#4D71BC" width="39" height="34"/>
</g>
<g>
	<path fill="#F7D3A4" d="M869,361h9c0,0,5.333-8,12.167-7.833s30,0.164,30,0.164s0,8.669-4.833,8.669S904,362,904,362
		s-3.833-0.083-3.833,3.583s2.333,4.417,4,4.417S920,370,920,370s12.167-12,19.667-12s11.833,3.582,11.833,3.582L925.667,382H869"/>
</g>
<g>
	<path fill="#C4B937" d="M889.417,314.167c-15.761,0-28.583-12.822-28.583-28.583S873.655,257,889.417,257S918,269.822,918,285.583
		S905.178,314.167,889.417,314.167z"/>
</g>
<g>
	<path fill="#FCEE21" d="M889.417,310.667c-13.831,0-25.083-11.252-25.083-25.083s11.252-25.083,25.083-25.083
		s25.083,11.252,25.083,25.083S903.248,310.667,889.417,310.667z M889.417,261.5c-13.28,0-24.083,10.804-24.083,24.083
		s10.804,24.083,24.083,24.083s24.083-10.804,24.083-24.083S902.696,261.5,889.417,261.5z"/>
</g>
<g>
	<path fill="#C4B937" d="M932.333,342.167c-11.396,0-20.667-9.271-20.667-20.667c0-11.396,9.271-20.667,20.667-20.667
		c11.396,0,20.667,9.271,20.667,20.667C953,332.896,943.729,342.167,932.333,342.167z"/>
</g>
<g>
	<path fill="#FCEE21" d="M932.333,340.667c-10.568,0-19.167-8.598-19.167-19.167c0-10.568,8.598-19.167,19.167-19.167
		c10.569,0,19.167,8.598,19.167,19.167C951.5,332.069,942.902,340.667,932.333,340.667z M932.333,303.333
		c-10.017,0-18.167,8.149-18.167,18.167s8.149,18.167,18.167,18.167s18.167-8.15,18.167-18.167S942.35,303.333,932.333,303.333z"/>
</g>
<g>
	<g>
		<path fill="#FCEE21" d="M896.135,279.607c-0.797-0.829-2.9-2.072-5.515-2.263v6.599c5.068,1.275,8.065,2.454,8.065,6.63
			c0,4.558-3.539,6.439-7.81,6.566v3.347h-1.658v-3.411c-3.028-0.191-5.897-1.243-8.192-2.996l1.657-3.06
			c0.957,1.02,3.634,2.55,6.758,2.869v-6.598c-5.259-1.402-7.522-2.741-7.522-6.279c0-4.176,3.124-6.566,7.299-6.854v-3.219h1.658
			v3.219c2.773,0.16,5.1,1.211,6.885,2.518L896.135,279.607z M889.441,283.624v-6.28c-2.486,0.127-3.825,1.275-3.825,3.124
			C885.616,282.253,886.859,282.923,889.441,283.624z M890.62,287.608v6.312c2.646-0.032,4.208-1.02,4.208-2.933
			C894.828,289.138,893.298,288.374,890.62,287.608z"/>
	</g>
</g>
<g>
	<g>
		<path fill="#FCEE21" d="M937.06,316.542c-0.572-0.595-2.081-1.487-3.957-1.624v4.735c3.637,0.915,5.787,1.761,5.787,4.757
			c0,3.271-2.539,4.621-5.604,4.712v2.401h-1.189v-2.447c-2.173-0.137-4.231-0.892-5.878-2.15l1.189-2.196
			c0.687,0.732,2.608,1.83,4.849,2.059v-4.735c-3.774-1.006-5.398-1.967-5.398-4.506c0-2.997,2.242-4.712,5.238-4.917v-2.311h1.189
			v2.311c1.99,0.114,3.66,0.869,4.94,1.807L937.06,316.542z M932.257,319.423v-4.506c-1.784,0.091-2.745,0.915-2.745,2.242
			C929.512,318.44,930.404,318.92,932.257,319.423z M933.104,322.283v4.529c1.898-0.023,3.019-0.732,3.019-2.104
			C936.123,323.38,935.024,322.832,933.104,322.283z"/>
	</g>
</g>
</svg>
